<svg width="430" height="33" viewBox="0 0 430 33" fill="none" xmlns="http://www.w3.org/2000/svg">
<g filter="url(#filter0_d)">
<path d="M72.4307 9.27544C73.0138 9.1338 73.6204 9.18338 74.2177 9.17393C76.897 9.19282 79.5787 9.17865 82.2603 9.17629C82.7537 9.19518 83.3368 9.17157 83.7074 9.56344C84.0875 9.94114 84.045 10.5219 84.0686 11.0129C84.0591 13.9353 84.0568 16.8578 84.0709 19.7779C84.045 20.3232 84.1087 20.9983 83.6295 21.376C83.1715 21.7278 82.5554 21.6381 82.0196 21.6687C79.1774 21.6546 76.3352 21.6593 73.4953 21.6687C72.8816 21.6546 72.0695 21.6923 71.7532 21.0455C71.4888 20.335 71.5903 19.5583 71.5691 18.8171C71.5927 16.1378 71.5573 13.4561 71.5785 10.7768C71.5549 10.1701 71.7555 9.42652 72.4307 9.27544ZM72.341 9.90337C72.0931 11.4472 72.2513 13.0147 72.2135 14.568C72.2584 16.6973 72.1049 18.8336 72.3079 20.9558C74.2767 21.1494 76.2573 21.0101 78.2308 21.0503C79.9375 20.996 81.6584 21.1943 83.351 20.9063C83.5256 19.0343 83.4053 17.1529 83.4383 15.2762C83.4029 13.4939 83.5304 11.7045 83.3415 9.92697C81.5663 9.72632 79.777 9.86088 77.9947 9.82547C76.1109 9.85615 74.22 9.74521 72.341 9.90337Z" fill="#F4F5F9"/>
<path d="M77.6026 11.0861C78.1409 10.9398 78.6555 11.2868 79.0285 11.6409C80.204 12.7881 80.7871 14.4193 80.9618 16.0245C81.1058 17.4433 80.4165 19.0556 79.0285 19.6009C78.0275 19.9526 76.8213 19.8724 75.9525 19.2303C75.2255 18.6921 74.8289 17.8021 74.7368 16.9192C74.5976 15.4202 74.9941 13.8835 75.8345 12.637C76.2689 11.9832 76.8095 11.3033 77.6026 11.0861Z" fill="#F4F5F9"/>
<path d="M87.588 12.3206C88.1475 12.3111 88.7069 12.3064 89.2688 12.2946C89.8754 13.4371 90.331 14.6529 90.8976 15.8143C91.594 14.7284 91.9599 13.4796 92.517 12.3253C93.0883 12.3111 93.6595 12.3017 94.2331 12.2852C94.4055 14.3672 94.5825 16.454 94.6203 18.5432C94.0396 18.5337 93.4612 18.5314 92.8829 18.5314C92.7908 17.5635 92.7412 16.5909 92.5949 15.6302C92.1888 16.3266 91.9386 17.0961 91.568 17.8067C91.1785 17.9766 90.7394 17.8798 90.331 17.9011C89.984 17.1126 89.6181 16.3313 89.1602 15.5995C89.0587 16.565 89.0067 17.5328 88.9619 18.5007C88.3741 18.5219 87.7886 18.5337 87.2056 18.5479C87.2811 16.4706 87.4629 14.3979 87.588 12.3206Z" fill="#F4F5F9"/>
<path d="M102.318 12.6939C103.506 11.9998 104.939 12.2335 106.244 12.3091C106.23 12.8095 106.216 13.3076 106.209 13.8081C105.326 13.7916 104.438 13.7774 103.565 13.9332C103.416 14.7523 103.322 15.5998 103.473 16.426C103.487 16.7612 103.659 16.9501 103.992 16.9949C104.743 17.1012 105.505 17.0256 106.263 17.0138C106.284 17.5261 106.308 18.0383 106.331 18.5529C105.028 18.612 103.602 18.8834 102.399 18.2484C101.405 17.6229 101.539 16.2938 101.518 15.2788C101.572 14.3959 101.48 13.2486 102.318 12.6939Z" fill="#F4F5F9"/>
<path d="M95.2627 12.3697C97.1488 12.2965 99.0373 12.3248 100.923 12.3532C100.902 12.8631 100.881 13.3706 100.862 13.8805C100.26 13.8994 99.6582 13.9112 99.0586 13.9277C99.0468 15.4621 99.0798 16.9989 99.0326 18.5333C98.4094 18.5333 97.7886 18.5309 97.1701 18.5309C97.1535 17.0012 97.1866 15.4692 97.1417 13.9395C96.5351 13.9135 95.9331 13.8876 95.3311 13.8356C95.3099 13.347 95.2863 12.8583 95.2627 12.3697Z" fill="#F4F5F9"/>
<path d="M66.9892 0.295503C81.2026 0.191635 95.423 0.295503 109.641 0.243569C110.805 0.177471 112.058 0.559893 112.745 1.55608C113.425 2.43659 113.359 3.60274 113.361 4.65086C113.331 12.2072 113.376 19.7636 113.343 27.32C113.385 29.048 111.848 30.5965 110.106 30.4879C95.8597 30.4903 81.611 30.4997 67.3646 30.4856C65.6744 30.5304 64.1659 29.0173 64.2249 27.3271C64.2013 19.9265 64.2344 12.5259 64.2108 5.12535C64.2155 4.27552 64.1518 3.41153 64.3406 2.57351C64.6664 1.38611 65.7499 0.411174 66.9892 0.295503ZM72.4305 9.27534C71.7553 9.42642 71.5547 10.17 71.5783 10.7767C71.5571 13.456 71.5925 16.1377 71.5689 18.817C71.5901 19.5582 71.4886 20.3349 71.753 21.0454C72.0693 21.6922 72.8814 21.6545 73.4951 21.6686C76.335 21.6592 79.1772 21.6545 82.0194 21.6686C82.5552 21.6379 83.1713 21.7276 83.6293 21.3759C84.1085 20.9982 84.0448 20.3231 84.0707 19.7778C84.0566 16.8577 84.0589 13.9352 84.0684 11.0128C84.0448 10.5217 84.0873 9.94103 83.7072 9.56333C83.3366 9.17147 82.7535 9.19507 82.2601 9.17619C79.5785 9.17855 76.8968 9.19271 74.2175 9.17383C73.6202 9.18327 73.0136 9.1337 72.4305 9.27534ZM87.5881 12.3205C87.463 14.3979 87.2812 16.4705 87.2057 18.5479C87.7887 18.5337 88.3742 18.5219 88.962 18.5007C89.0068 17.5328 89.0588 16.565 89.1603 15.5995C89.6182 16.3313 89.9841 17.1126 90.3311 17.9011C90.7395 17.8798 91.1786 17.9766 91.5681 17.8066C91.9387 17.0961 92.1889 16.3265 92.595 15.6301C92.7413 16.5909 92.7909 17.5635 92.883 18.5314C93.4613 18.5314 94.0397 18.5337 94.6204 18.5432C94.5826 16.454 94.4056 14.3672 94.2332 12.2851C93.6596 12.3017 93.0884 12.3111 92.5171 12.3253C91.96 13.4796 91.5941 14.7284 90.8977 15.8143C90.3311 14.6528 89.8755 13.4371 89.2689 12.2946C88.707 12.3064 88.1476 12.3111 87.5881 12.3205ZM102.318 12.6935C101.48 13.2483 101.572 14.3955 101.518 15.2784C101.539 16.2935 101.405 17.6225 102.399 18.2481C103.603 18.8831 105.028 18.6116 106.331 18.5526C106.308 18.038 106.284 17.5257 106.263 17.0135C105.505 17.0253 104.743 17.1008 103.992 16.9946C103.659 16.9497 103.487 16.7609 103.473 16.4257C103.322 15.5995 103.416 14.752 103.565 13.9329C104.438 13.7771 105.326 13.7912 106.209 13.8077C106.216 13.3073 106.23 12.8092 106.244 12.3087C104.939 12.2332 103.506 11.9995 102.318 12.6935ZM95.2625 12.3701C95.2861 12.8588 95.3097 13.3474 95.3309 13.8361C95.9329 13.888 96.5349 13.914 97.1415 13.9399C97.1864 15.4696 97.1534 17.0017 97.1699 18.5314C97.7884 18.5314 98.4092 18.5337 99.0324 18.5337C99.0796 16.9993 99.0466 15.4625 99.0584 13.9281C99.658 13.9116 100.26 13.8998 100.862 13.8809C100.881 13.371 100.902 12.8635 100.923 12.3536C99.0371 12.3253 97.1486 12.2969 95.2625 12.3701Z" fill="#D42A2A"/>
<path d="M72.3407 9.90316C74.2197 9.745 76.1106 9.85595 77.9944 9.82526C79.7767 9.86067 81.566 9.72611 83.3412 9.92676C83.5301 11.7043 83.4026 13.4937 83.438 15.2759C83.4049 17.1526 83.5253 19.0341 83.3506 20.906C81.6581 21.194 79.9372 20.9958 78.2304 21.05C76.257 21.0099 74.2764 21.1492 72.3076 20.9556C72.1046 18.8334 72.2581 16.697 72.2132 14.5678C72.251 13.0145 72.0928 11.447 72.3407 9.90316ZM77.6025 11.0858C76.8093 11.303 76.2688 11.9829 75.8344 12.6368C74.994 13.8832 74.5974 15.4199 74.7367 16.9189C74.8288 17.8018 75.2254 18.6918 75.9524 19.23C76.8211 19.8721 78.0274 19.9524 79.0283 19.6006C80.4164 19.0553 81.1057 17.443 80.9617 16.0243C80.787 14.419 80.2039 12.7878 79.0283 11.6406C78.6554 11.2865 78.1407 10.9395 77.6025 11.0858Z" fill="#D42A2A"/>
<path d="M22.2233 6.12068C23.5051 5.61079 24.9002 5.53997 26.2647 5.49512C26.2765 8.77639 26.2694 12.0577 26.267 15.3389C25.6816 15.3602 25.0867 15.3342 24.5131 15.464C24.1118 15.6907 24.1826 16.1864 24.1495 16.5735C24.133 19.2411 24.1755 21.9109 24.1354 24.5784C21.9565 24.1677 19.8839 23.0936 18.4321 21.401C16.4539 19.1962 15.5875 16.0282 16.2438 13.1317C16.8623 9.97322 19.2229 7.25378 22.2233 6.12068ZM23.6137 11.5265C22.8347 11.8074 22.6151 12.976 23.3233 13.4622C23.9347 14.0382 25.0159 13.5826 25.1292 12.78C25.2944 11.968 24.3856 11.1795 23.6137 11.5265Z" fill="#F4F5F9"/>
<path d="M27.4799 5.59668C30.5581 5.98382 33.3649 7.97855 34.7506 10.7499C35.768 12.688 36.0324 14.9849 35.5744 17.1189C35.015 19.7368 33.2752 22.0479 30.9712 23.3887C29.2716 24.3802 27.2768 24.7532 25.327 24.6257C25.3246 21.9063 25.2774 19.1892 25.3577 16.4721C26.08 16.3966 27.52 16.7743 27.4468 15.6246C27.5011 12.282 27.4208 8.93933 27.4799 5.59668ZM26.8944 18.1056C26.2712 18.396 26.1414 19.3403 26.6985 19.7628C27.2603 20.2845 28.325 19.9304 28.3816 19.1396C28.5303 18.3512 27.579 17.6925 26.8944 18.1056ZM29.7177 18.0702C28.8632 18.3653 28.9718 19.8195 29.8688 19.9753C30.5109 20.1854 31.1931 19.607 31.153 18.946C31.1199 18.2496 30.348 17.7846 29.7177 18.0702ZM32.5363 18.0514C31.873 18.2662 31.6322 19.227 32.1657 19.7038C32.685 20.3081 33.8205 19.9611 33.9008 19.1632C34.0613 18.4173 33.228 17.7728 32.5363 18.0514Z" fill="#F4F5F9"/>
<path d="M3.26497 0.158158C3.68988 0.0306841 4.13841 0.00944252 4.58457 0C18.6775 0.0165244 32.7705 -2.88004e-07 46.8634 0.0070816C47.9729 -0.0118034 49.1037 0.528777 49.6749 1.50136C50.1659 2.26148 50.2084 3.19393 50.2037 4.07209C50.1707 11.7111 50.2179 19.3524 50.1825 26.9914C50.2438 28.8823 48.4805 30.4332 46.6297 30.3105C33.0136 30.3317 19.3951 30.301 5.77668 30.3246C4.57512 30.3199 3.21775 30.3978 2.24281 29.5692C1.37174 28.9153 0.968076 27.8176 1.00821 26.753C1.01057 19.5106 1.01765 12.2658 1.00584 5.02106C1.02709 3.94461 0.87837 2.7997 1.35994 1.79407C1.71403 1.00326 2.43167 0.394221 3.26497 0.158158ZM22.2232 6.12111C19.2228 7.25421 16.8622 9.97365 16.2437 13.1322C15.5874 16.0287 16.4538 19.1966 18.432 21.4015C19.8838 23.094 21.9564 24.1681 24.1353 24.5789C24.1754 21.9114 24.1329 19.2415 24.1495 16.574C24.1825 16.1868 24.1117 15.6911 24.513 15.4645C25.0866 15.3346 25.6815 15.3606 26.2669 15.3394C26.2693 12.0581 26.2764 8.77682 26.2646 5.49554C24.9001 5.5404 23.505 5.61121 22.2232 6.12111ZM27.4803 5.59705C27.4213 8.9397 27.5015 12.2824 27.4473 15.625C27.5204 16.7746 26.0805 16.3969 25.3581 16.4725C25.2778 19.1896 25.3251 21.9066 25.3274 24.6261C27.2773 24.7536 29.272 24.3806 30.9717 23.3891C33.2756 22.0483 35.0154 19.7372 35.5749 17.1193C36.0329 14.9853 35.7685 12.6884 34.751 10.7503C33.3653 7.97892 30.5586 5.98419 27.4803 5.59705Z" fill="#4DB45E"/>
<path d="M23.6136 11.5274C24.3855 11.1804 25.2943 11.9688 25.1291 12.7809C25.0158 13.5835 23.9346 14.0391 23.3232 13.4631C22.615 12.9768 22.8346 11.8083 23.6136 11.5274Z" fill="#4DB45E"/>
<path d="M26.8946 18.1057C27.5792 17.6926 28.5306 18.3512 28.3819 19.1397C28.3252 19.9305 27.2606 20.2846 26.6987 19.7629C26.1416 19.3403 26.2714 18.3961 26.8946 18.1057Z" fill="#4DB45E"/>
<path d="M29.7182 18.0709C30.3485 17.7852 31.1204 18.2503 31.1535 18.9466C31.1936 19.6076 30.5114 20.186 29.8693 19.9759C28.9722 19.8201 28.8637 18.3659 29.7182 18.0709Z" fill="#4DB45E"/>
<path d="M32.5367 18.0516C33.2284 17.773 34.0617 18.4174 33.9012 19.1634C33.8209 19.9613 32.6855 20.3083 32.1661 19.704C31.6326 19.2271 31.8734 18.2664 32.5367 18.0516Z" fill="#4DB45E"/>
<path d="M320.897 0.241603C320.207 0.230768 319.513 0.219703 318.842 0.394099C317.497 0.800178 316.566 2.17644 316.646 3.57622C316.648 7.00582 316.647 10.4359 316.647 13.8662C316.647 18.3055 316.646 22.7453 316.649 27.1849C316.543 28.9743 318.176 30.563 319.956 30.4426C334.12 30.4426 348.286 30.445 362.45 30.4426C364.22 30.5536 365.828 28.9601 365.729 27.1897C365.729 19.2414 365.743 11.2908 365.722 3.34016C365.745 1.6287 364.164 0.146279 362.459 0.247827C348.839 0.243102 335.217 0.247827 321.599 0.245407C321.366 0.24898 321.132 0.245292 320.897 0.241603Z" fill="#F4F5F9"/>
<path d="M340.73 8.9209C341.088 8.9988 341.45 9.08142 341.811 9.16168C341.667 9.7424 341.525 10.3231 341.383 10.9062C341.671 10.9723 341.957 11.0384 342.245 11.1045C342.382 10.5356 342.519 9.96666 342.651 9.39775C343.008 9.48037 343.366 9.55827 343.725 9.63853C343.586 10.2216 343.447 10.8023 343.298 11.383C344.046 11.7584 344.943 12.0841 345.316 12.9009C345.732 13.8971 345.208 15.1057 344.204 15.4952C344.594 15.8706 345.085 16.2318 345.182 16.803C345.347 17.896 344.792 19.2014 343.683 19.5626C342.897 19.8105 342.063 19.657 341.263 19.5957C341.131 20.1622 341.001 20.7311 340.876 21.3C340.508 21.2387 340.144 21.1655 339.778 21.0994C339.922 20.5045 340.066 19.9096 340.21 19.3147C339.925 19.2416 339.641 19.1684 339.356 19.0976C339.216 19.6712 339.079 20.2496 338.95 20.8279C338.586 20.7595 338.223 20.6839 337.861 20.6131C338.005 20.0135 338.154 19.4163 338.308 18.819C337.592 18.6254 336.879 18.4342 336.164 18.243C336.336 17.8394 336.509 17.4404 336.688 17.0415C337.049 17.1076 337.413 17.2492 337.786 17.1973C338.166 16.5174 338.223 15.7148 338.437 14.9759C338.652 13.9302 339.049 12.9127 339.129 11.841C338.867 11.4184 338.305 11.4279 337.89 11.2626C337.977 10.8873 338.062 10.512 338.149 10.1366C338.869 10.316 339.587 10.4954 340.307 10.6748C340.453 10.0918 340.595 9.5087 340.73 8.9209ZM340.545 14.3244C341.254 14.5132 342.014 14.7257 342.745 14.5345C343.364 14.3433 343.567 13.4651 343.116 13.0095C342.573 12.4949 341.792 12.3816 341.112 12.1455C340.925 12.8726 340.739 13.5997 340.545 14.3244ZM340.309 15.3985C340.163 16.2058 339.722 17.0249 339.847 17.8417C340.633 18.0471 341.468 18.2241 342.278 18.0801C342.996 17.9314 343.277 16.9541 342.769 16.4395C342.11 15.8021 341.154 15.6534 340.309 15.3985Z" fill="#F4F5F9"/>
<path d="M325.095 9.32711C326.453 9.24213 327.812 9.28226 329.172 9.2799C329.694 9.26101 330.397 9.36724 330.541 9.97392C330.919 11.4611 331.186 12.9743 331.467 14.4827C330.773 12.8326 329.505 11.4635 327.959 10.5735C327.073 10.0046 326.028 9.78979 325.095 9.32711Z" fill="#FFB930"/>
<path d="M331.786 15.8657C332.638 13.6703 333.455 11.4608 334.326 9.27246C335.232 9.29135 336.139 9.28662 337.043 9.28662C335.688 12.5112 334.33 15.7359 332.973 18.9605C332.069 18.9581 331.167 18.9558 330.265 18.977C329.458 16.1867 328.714 13.3776 327.959 10.5732C329.505 11.4631 330.773 12.8323 331.467 14.4824C331.601 14.9356 331.686 15.403 331.786 15.8657Z" fill="#03A6DC"/>
<path d="M338.093 9.28009C338.955 9.27773 339.816 9.27773 340.678 9.28009C340.137 12.5094 339.599 15.7411 339.061 18.9705C338.199 18.9705 337.338 18.9705 336.476 18.9705C337.014 15.7388 337.553 12.5094 338.093 9.28009Z" fill="#03A6DC"/>
<path d="M342.942 10.04C344.519 8.89507 346.636 8.94937 348.435 9.47579C348.324 10.1745 348.211 10.8733 348.119 11.5744C347.111 11.2439 345.975 10.8992 344.946 11.3265C344.516 11.4729 344.214 12.089 344.653 12.4077C345.6 13.2079 346.979 13.4558 347.687 14.5464C348.537 15.84 347.847 17.6695 346.556 18.3848C344.778 19.4211 342.604 19.1827 340.702 18.661C340.782 17.9198 340.909 17.1856 341.035 16.4491C342.212 16.933 343.591 17.3839 344.83 16.8693C345.366 16.6733 345.576 15.8896 345.043 15.5591C344.103 14.8321 342.807 14.5511 342.123 13.5077C341.344 12.3841 341.887 10.7836 342.942 10.04Z" fill="#03A6DC"/>
<path d="M351.575 10.4104C351.766 9.9666 352.021 9.43782 352.552 9.35048C353.385 9.22773 354.233 9.3009 355.071 9.29146C355.762 12.5184 356.468 15.7454 357.16 18.9724C356.369 18.97 355.578 18.97 354.787 18.9866C354.667 18.5003 354.554 18.0116 354.443 17.5206C353.34 17.5183 352.238 17.5183 351.136 17.5183C350.954 17.9998 350.772 18.4838 350.593 18.97C349.689 18.9724 348.784 18.9724 347.878 18.9724C349.108 16.116 350.35 13.2668 351.575 10.4104ZM353.218 12.0227C352.762 13.1889 352.33 14.3645 351.882 15.533C352.592 15.533 353.303 15.533 354.013 15.5448C353.765 14.3692 353.586 13.17 353.218 12.0227Z" fill="#03A6DC"/>
<rect x="258.345" y="7.62305" width="39.1864" height="14.6359" fill="#F4F5F9"/>
<path d="M255.781 0.384933C256.616 0.170116 257.487 0.255098 258.339 0.243295C272.029 0.250377 285.72 0.240934 299.407 0.248016C301.119 0.163034 302.677 1.67148 302.634 3.38529C302.646 11.3359 302.641 19.2889 302.637 27.2394C302.707 28.9674 301.157 30.5089 299.431 30.4405C285.177 30.4428 270.922 30.4523 256.666 30.4357C254.968 30.4617 253.479 28.9155 253.562 27.2206C253.547 19.7468 253.564 12.2731 253.552 4.79931C253.559 4.02738 253.498 3.24129 253.694 2.48825C253.979 1.49679 254.794 0.682372 255.781 0.384933ZM270.589 9.98561C269.34 11.9213 268.83 14.3551 269.342 16.6143C269.746 18.5146 270.858 20.2921 272.506 21.3544C274.899 22.9266 277.987 23.453 280.751 22.6527C283.634 22.013 286.684 23.3704 288.369 25.7428C287.951 24.1659 286.584 23.0541 285.185 22.3459C283.676 21.581 281.844 21.8808 280.385 21.0003C279.743 20.6439 279.264 20.0797 278.799 19.5273C278.834 19.9734 278.886 20.4196 278.929 20.8657C276.767 20.6675 274.592 19.7374 273.244 17.9881C271.384 15.5496 271.066 11.8245 273.018 9.34824C274.179 7.79731 276.268 7.108 278.14 7.53764C282.371 8.3615 285.352 13.0143 284.299 17.2068C283.631 16.9188 282.921 16.7323 282.189 16.737C282.869 16.992 283.615 17.1784 284.136 17.7238C284.653 18.1817 284.904 18.8403 285.147 19.4683C286.688 17.483 287.422 14.8438 286.936 12.3604C286.525 10.2335 285.255 8.2836 283.449 7.07968C281.575 5.81438 279.2 5.35642 276.981 5.74592C274.392 6.20388 272.008 7.76426 270.589 9.98561ZM284.077 18.9489C284.141 19.4281 284.283 19.9262 284.719 20.2001C284.797 19.6807 284.665 19.074 284.077 18.9489ZM282.446 19.676C281.811 20.0372 282.444 21.0971 283.069 20.8067C283.712 20.4408 283.086 19.4187 282.446 19.676Z" fill="#F4F5F9"/>
<path d="M278.135 6.11896C280.416 4.04868 283.586 2.9864 286.653 3.35702C289.676 3.67571 292.507 5.36356 294.266 7.83513C296.173 10.4531 296.813 13.9279 296.001 17.0605C295.075 20.8375 291.995 23.996 288.22 24.9639C284.717 25.9294 280.801 24.9355 278.128 22.4876C278.506 22.1193 278.853 21.7156 279.198 21.3143C278.445 21.2648 277.659 21.3757 276.931 21.1538C276.636 20.8611 276.422 20.5023 276.188 20.1647C277.472 20.1222 278.759 20.1411 280.045 20.1411C280.276 19.7587 280.513 19.3762 280.746 18.9915C279.335 18.9277 277.921 18.9726 276.509 18.9749C276.178 18.9325 275.791 19.0127 275.51 18.8121C275.324 18.4981 275.194 18.1582 275.052 17.8253C277.106 17.7545 279.16 17.8584 281.211 17.7639C281.343 17.2139 281.471 16.6615 281.556 16.1021C282.033 16.9967 283.05 17.4665 284.044 17.221C284.686 17.2422 284.528 16.3688 284.75 15.9675C284.127 15.9982 283.305 16.3287 282.857 15.7102C282.34 14.8651 282.585 13.6446 283.282 12.9671C283.801 12.4549 284.547 12.75 285.151 12.8987C285.222 12.5115 285.293 12.1244 285.368 11.7373C284.696 11.5602 283.971 11.3312 283.289 11.5885C282.46 11.8553 281.955 12.613 281.556 13.3401L281.523 12.8798C281.518 12.7759 281.506 12.5682 281.502 12.4667C281.495 12.3369 281.48 12.0772 281.473 11.9497C279.259 11.9167 277.04 12.03 274.828 11.886C274.882 11.5295 274.941 11.1754 275 10.819C277.038 10.7363 279.08 10.8331 281.119 10.7623C280.98 10.3775 280.845 9.99511 280.708 9.61269C278.985 9.59144 277.26 9.6481 275.539 9.57728C275.737 9.19486 275.94 8.81479 276.143 8.43473C277.425 8.45126 278.707 8.46306 279.988 8.41821C279.748 8.03815 279.505 7.65809 279.264 7.28039C278.544 7.2733 277.824 7.25442 277.104 7.21901C277.437 6.84131 277.772 6.46833 278.135 6.11896ZM293.878 13.0687C293.376 12.7452 292.764 12.3321 292.162 12.6886C290.828 13.4487 290.354 15.493 291.234 16.7512C291.695 17.3839 292.542 17.3013 293.147 16.9424C293.501 17.2281 293.968 17.1525 294.393 17.1738C294.669 15.3136 294.983 13.4582 295.269 11.598C294.889 11.5909 294.511 11.5815 294.136 11.5744C294.041 12.0701 293.954 12.5682 293.878 13.0687ZM285.753 12.7594C285.711 13.0923 285.67 13.4227 285.633 13.758C286.306 13.6682 287.571 13.1914 287.675 14.2324C286.992 14.282 286.239 14.2254 285.656 14.6526C284.896 15.172 284.75 16.4868 285.505 17.0699C286.046 17.4523 286.695 17.1573 287.214 16.9C287.299 16.9731 287.467 17.1171 287.55 17.1903C287.741 17.1809 288.123 17.162 288.314 17.1525C288.437 16.0997 288.65 15.061 288.742 14.0058C288.801 13.5266 288.612 12.9837 288.168 12.7523C287.413 12.3369 286.534 12.5776 285.753 12.7594ZM289.237 12.639C288.99 14.1498 288.749 15.663 288.517 17.1785C288.909 17.1785 289.304 17.1761 289.7 17.1761C289.865 16.2201 289.957 15.2404 290.29 14.3245C290.892 13.8878 291.18 13.2197 291.319 12.5092C290.932 12.639 290.578 12.8397 290.255 13.0828C290.257 12.9695 290.264 12.7429 290.269 12.6272C289.922 12.6319 289.58 12.6343 289.237 12.639Z" fill="#FFB930"/>
<path d="M292.613 13.7763C292.887 13.5496 293.39 13.7054 293.482 14.0525C293.678 14.6851 293.567 15.4783 293.066 15.941C292.748 16.2408 292.153 16.0991 292.084 15.6459C291.936 15.0062 292.037 14.1752 292.613 13.7763Z" fill="#FFB930"/>
<path d="M286.233 15.4854C286.514 15.077 287.071 15.1808 287.496 15.1006C287.321 15.5279 287.238 16.2054 286.669 16.2762C286.235 16.3588 285.987 15.8135 286.233 15.4854Z" fill="#FFB930"/>
<path d="M267.484 3.82152C271.115 2.59163 275.312 3.54769 278.135 6.11841C277.772 6.46779 277.437 6.84077 277.104 7.21847C277.824 7.25388 278.544 7.27276 279.264 7.27984C279.505 7.65754 279.748 8.03761 279.988 8.41767C278.707 8.46252 277.425 8.45071 276.143 8.43419C275.94 8.81425 275.737 9.19431 275.539 9.57673C277.26 9.64755 278.985 9.5909 280.709 9.61215C280.845 9.99457 280.98 10.377 281.119 10.7618C279.08 10.8326 277.038 10.7358 275.001 10.8184C274.941 11.1749 274.882 11.529 274.828 11.8854C277.04 12.0294 279.259 11.9161 281.473 11.9492C281.48 12.0766 281.495 12.3363 281.502 12.4661C281.211 12.6432 280.926 12.825 280.642 13.0091C280.442 12.5204 279.904 12.6526 279.488 12.6078C279.257 14.1304 279.004 15.6506 278.766 17.1732C279.155 17.1803 279.545 17.1874 279.937 17.1968C280.267 16.059 280.019 14.5128 281.145 13.7881C281.275 13.4859 281.4 13.1814 281.523 12.8793L281.556 13.3396C281.398 14.2531 281.351 15.1879 281.556 16.1015C281.471 16.661 281.344 17.2134 281.211 17.7634C279.16 17.8578 277.106 17.754 275.052 17.8248C275.194 18.1576 275.324 18.4976 275.51 18.8115C275.791 19.0122 276.178 18.9319 276.509 18.9744C277.921 18.972 279.335 18.9272 280.746 18.9909C280.513 19.3757 280.277 19.7581 280.045 20.1406C278.759 20.1406 277.472 20.1217 276.188 20.1642C276.422 20.5017 276.636 20.8605 276.931 21.1533C277.659 21.3752 278.445 21.2642 279.198 21.3138C278.853 21.7151 278.506 22.1188 278.128 22.487C275.916 24.4983 272.862 25.5629 269.878 25.2773C266.802 25.0294 263.894 23.3628 262.078 20.8771C260.138 18.2733 259.453 14.7937 260.247 11.647C261.108 8.02816 263.934 4.9499 267.484 3.82152ZM261.885 11.588C261.571 13.4458 261.273 15.3083 260.95 17.1662C261.325 17.1662 261.701 17.1709 262.081 17.1709C262.303 15.7946 262.546 14.4231 262.732 13.0421C262.843 14.416 262.843 15.797 262.888 17.1732C263.15 17.1756 263.412 17.1756 263.677 17.178C264.17 15.856 264.592 14.5081 265.119 13.2003C264.954 14.5293 264.708 15.8489 264.519 17.1756C264.911 17.1732 265.305 17.1732 265.702 17.1732C266.007 15.3107 266.318 13.4505 266.616 11.5856C265.999 11.5856 265.383 11.588 264.77 11.5951C264.406 12.6951 264.071 13.807 263.644 14.8858C263.606 13.7857 263.601 12.6857 263.577 11.588C263.011 11.5856 262.447 11.588 261.885 11.588ZM273.648 11.9374C273.365 13.4812 273.001 15.0321 272.989 16.6043C273.143 17.4329 274.103 17.2464 274.715 17.1827C274.772 16.8451 274.831 16.5052 274.89 16.1676C274.708 16.1393 274.342 16.0826 274.158 16.0543C274.236 15.2918 274.356 14.5341 274.479 13.7763C274.635 13.7621 274.946 13.7314 275.102 13.7173C275.154 13.3632 275.208 13.0138 275.265 12.6621C275.121 12.6503 274.831 12.6267 274.687 12.6149C274.713 12.4496 274.764 12.1144 274.79 11.9492C274.408 11.9444 274.026 11.9421 273.648 11.9374ZM266.967 12.7376C266.906 13.0752 266.842 13.4104 266.783 13.748C267.482 13.6913 268.742 13.1673 268.856 14.2343C268.214 14.2838 267.513 14.2248 266.946 14.5836C266.106 15.0487 265.907 16.4202 266.66 17.0458C267.194 17.4518 267.876 17.1921 268.388 16.8852C268.596 17.3267 269.125 17.1071 269.496 17.1874C269.628 16.1251 269.824 15.0746 269.93 14.01C269.994 13.5119 269.779 12.943 269.304 12.7235C268.568 12.3481 267.73 12.5842 266.967 12.7376ZM270.973 12.7164C270.282 13.0256 270.008 13.9297 270.296 14.6049C270.574 15.2045 271.358 15.3083 271.686 15.8631C271.344 16.5264 270.456 16.111 269.883 16.1133C269.831 16.4556 269.784 16.8003 269.736 17.1449C270.489 17.178 271.292 17.3574 272.017 17.0647C272.831 16.7389 273.025 15.5798 272.545 14.907C272.177 14.5695 271.717 14.3499 271.346 14.0147C271.587 13.3868 272.347 13.6913 272.852 13.6229C272.895 13.2758 272.94 12.9288 272.985 12.5818C272.316 12.5629 271.606 12.4355 270.973 12.7164ZM275.848 13.1295C275.095 14.036 274.833 15.4618 275.449 16.5075C276.098 17.4305 277.366 17.322 278.338 17.1048C278.405 16.7294 278.473 16.3565 278.546 15.9811C277.741 16.2715 276.313 16.5028 276.228 15.2895C277.042 15.2847 277.857 15.2895 278.671 15.2895C278.744 14.5954 278.933 13.8235 278.523 13.1979C277.961 12.2679 276.49 12.3009 275.848 13.1295Z" fill="#D52A2A"/>
<path d="M276.322 14.3384C276.539 14.0197 276.709 13.4815 277.196 13.5618C277.632 13.5122 277.614 14.0835 277.727 14.3667C277.257 14.362 276.787 14.3526 276.322 14.3384Z" fill="#D52A2A"/>
<path d="M267.413 15.5044C267.68 15.0559 268.266 15.1527 268.705 15.1881C268.488 15.5989 268.362 16.274 267.784 16.2763C267.385 16.3023 267.201 15.7995 267.413 15.5044Z" fill="#D52A2A"/>
<rect x="190.447" y="0.236328" width="49.1011" height="30.216" rx="3.06882" fill="black"/>
<g clip-path="url(#clip0)">
<path d="M215.116 28.5638C222.482 28.5638 228.453 22.5924 228.453 15.2262C228.453 7.8601 222.482 1.88867 215.116 1.88867C207.75 1.88867 201.778 7.8601 201.778 15.2262C201.778 22.5924 207.75 28.5638 215.116 28.5638Z" fill="black"/>
<path d="M204.298 13.4487V14.6343L207.558 14.3379V13.0042L204.298 13.4487ZM205.335 14.6343V18.6356H206.521V14.6343H205.335ZM207.855 12.856V18.6356H209.04V12.7078L207.855 12.856ZM209.336 12.7078V14.0415L211.115 13.8933V12.4114L209.336 12.7078ZM209.336 15.0789V16.4126H210.522V14.9307L209.336 15.0789ZM209.336 17.45V18.7838H211.115V17.45H209.336ZM215.709 11.8186V18.7838H217.339V11.5222L215.709 11.8186ZM217.635 11.5222V13.1523L220.007 12.856V11.2258L217.635 11.5222ZM217.635 14.3379V15.9681L219.117 15.8199V14.1897L217.635 14.3379ZM217.635 17.1536V18.7838H220.007V17.1536H217.635ZM211.559 12.4114V18.7838H212.893V12.2632L211.559 12.4114ZM213.19 17.3018V18.7838H215.264V17.3018H213.19ZM225.193 11.0776C224.749 10.633 224.008 10.3366 223.119 10.4848V12.2632C223.415 12.2632 223.711 12.4114 223.86 12.5596C224.008 13.0042 223.86 13.5969 223.415 14.0415C222.674 14.9307 220.747 16.5608 220.747 16.5608L223.415 16.4126C225.045 14.7825 225.638 13.7451 225.786 12.5596C225.934 12.2632 225.638 11.5222 225.193 11.0776ZM225.934 18.7838V17.0054L220.451 17.1536L225.934 18.7838ZM220.451 17.0054V18.6356H225.934L220.451 17.0054ZM222.822 10.633C221.192 10.9294 220.451 12.115 220.599 14.0415L222.229 13.8933C222.081 12.856 222.526 12.5596 222.822 12.4114V10.633Z" fill="#F4F5F9"/>
</g>
<rect x="379.733" y="0.236328" width="49.1011" height="30.216" rx="3.06882" fill="#F4F5F9"/>
<path d="M386.579 10.3867H389.836C390.285 10.4436 390.738 10.6108 391.055 10.9448C391.261 11.1509 391.4 11.4162 391.48 11.695C391.92 13.2431 392.347 14.7952 392.799 16.3402C392.883 16.3398 392.968 16.3398 393.053 16.3402C393.507 14.7842 393.938 13.2212 394.383 11.663C394.502 11.2424 394.789 10.8734 395.171 10.6585C395.44 10.4992 395.75 10.4261 396.058 10.3867H399.272C399.272 13.7276 399.272 17.069 399.272 20.4099H396.121C396.118 18.4272 396.126 16.444 396.117 14.4612C396.032 14.4621 395.948 14.4625 395.863 14.463C395.237 16.4413 394.639 18.4298 394.017 20.4099H391.832C391.216 18.4267 390.61 16.4409 389.991 14.4595C389.905 14.4581 389.818 14.4568 389.732 14.4564C389.728 16.4409 389.732 18.4254 389.73 20.4099H386.579V10.3867Z" fill="#4DB45E"/>
<path d="M400.629 10.3867H403.78C403.782 12.3712 403.778 14.3557 403.782 16.3398C403.867 16.3394 403.953 16.3394 404.039 16.3385C404.802 14.6892 405.544 13.0295 406.304 11.3785C406.546 10.8612 407.048 10.4799 407.612 10.3867H410.608C410.608 13.7276 410.608 17.069 410.608 20.4099H407.457C407.456 18.4254 407.46 16.4409 407.455 14.4568C407.369 14.4568 407.284 14.4573 407.198 14.4577C406.532 15.9275 405.882 17.4043 405.221 18.8762C405.072 19.1984 404.955 19.5446 404.715 19.8133C404.438 20.135 404.041 20.3355 403.626 20.4099H400.629C400.629 17.069 400.629 13.7276 400.629 10.3867Z" fill="#4DB45E"/>
<path d="M412.011 14.9404C415.268 14.9391 418.525 14.936 421.783 14.9422C421.353 16.2347 420.07 17.1779 418.709 17.2099C417.527 17.223 416.344 17.2094 415.162 17.2164C415.158 18.2809 415.162 19.3458 415.161 20.4103H412.009C412.01 18.5868 412.007 16.7638 412.011 14.9404Z" fill="#4DB45E"/>
<path d="M411.563 10.3867H418.769C419.575 10.4436 420.365 10.775 420.943 11.344C421.562 11.9313 421.928 12.7573 421.988 13.6051V14.038C421.969 14.1898 421.945 14.3413 421.923 14.4927C420.151 14.5072 418.377 14.4967 416.605 14.5015C415.644 14.5129 414.679 14.2533 413.864 13.743C412.67 13.012 411.82 11.7615 411.563 10.3867Z" fill="#03A6DC"/>
<path d="M139.487 21.7502C140.037 21.7667 140.608 21.6936 141.142 21.8612C141.864 22.2436 141.833 23.5868 140.993 23.8134C140.518 23.9244 139.77 24.0117 139.558 23.4451C139.437 22.888 139.499 22.312 139.487 21.7502Z" fill="#F4F5F9"/>
<path d="M152.519 22.8199C152.93 22.7089 153.357 22.6806 153.78 22.6357C153.773 23.0205 153.763 23.41 153.742 23.7995C153.324 23.8255 152.821 24.0781 152.451 23.7759C152.165 23.4832 152.276 23.0914 152.519 22.8199Z" fill="#F4F5F9"/>
<path d="M138.698 19.0166C139.774 19.0166 140.851 19.0118 141.927 19.0236C141.937 19.2715 141.944 19.5241 141.951 19.779C141.132 19.8074 140.31 19.7979 139.489 19.8262C139.489 20.2039 139.486 20.584 139.486 20.9664C140.329 21.0255 141.328 20.8484 142.003 21.4787C142.798 22.3262 142.654 24.0777 141.448 24.4814C140.513 24.8119 138.991 24.7623 138.728 23.5749C138.603 22.0618 138.681 20.5344 138.698 19.0166ZM139.486 21.7502C139.498 22.312 139.437 22.888 139.557 23.4451C139.77 24.0116 140.518 23.9243 140.992 23.8134C141.833 23.5867 141.863 22.2435 141.141 21.8611C140.608 21.6935 140.036 21.7667 139.486 21.7502Z" fill="#231F20"/>
<path d="M155.388 19.0284C156.516 19.0095 157.644 19.0072 158.773 19.0308C158.768 19.222 158.756 19.6044 158.749 19.7956C157.635 19.8074 156.521 19.8027 155.407 19.8003C155.402 19.6068 155.392 19.222 155.388 19.0284Z" fill="#231F20"/>
<path d="M148.202 21.0725C148.863 20.4162 149.89 20.7184 150.721 20.6523C150.759 21.9695 150.74 23.2891 150.737 24.6087C150.546 24.6087 150.161 24.6087 149.97 24.6087C149.956 23.5252 149.977 22.444 149.947 21.3628C149.538 21.4289 149.071 21.3676 148.714 21.6131C148.412 22.411 148.577 23.3293 148.181 24.0988C147.923 24.5875 147.319 24.6087 146.842 24.6866C146.8 24.1342 147.225 23.8132 147.617 23.5228C147.739 22.699 147.664 21.7618 148.202 21.0725Z" fill="#231F20"/>
<path d="M151.771 20.7328C152.654 20.4684 154.037 20.2489 154.493 21.2947C154.701 22.3735 154.547 23.4853 154.583 24.5806C153.787 24.524 152.973 24.7813 152.196 24.5665C151.198 24.2289 151.193 22.5954 152.142 22.1964C152.68 22.0005 153.263 22.0241 153.825 21.9674C153.78 21.8045 153.693 21.4835 153.648 21.323C153.029 21.2616 152.409 21.3253 151.8 21.4386C151.792 21.2616 151.778 20.9075 151.771 20.7328ZM152.52 22.8196C152.276 23.0911 152.165 23.483 152.451 23.7757C152.822 24.0778 153.324 23.8252 153.742 23.7993C153.764 23.4098 153.773 23.0203 153.78 22.6355C153.358 22.6803 152.93 22.7087 152.52 22.8196Z" fill="#231F20"/>
<path d="M155.416 20.6527C155.603 20.6527 155.978 20.6504 156.165 20.6504C156.219 21.5309 156.139 22.4185 156.233 23.2966C156.339 24.2645 157.99 23.9623 157.982 23.0936C158.006 22.2792 157.964 21.4648 158.015 20.6527C158.2 20.6527 158.57 20.6504 158.757 20.6504C158.809 21.97 158.783 23.2896 158.773 24.6115C158.292 24.4557 157.789 24.3542 157.31 24.5761C156.623 24.8429 155.634 24.6092 155.466 23.7995C155.298 22.7608 155.398 21.6985 155.416 20.6527Z" fill="#231F20"/>
<path d="M162.281 20.6527C162.465 20.6527 162.833 20.6504 163.017 20.6504C163.067 21.9676 163.039 23.2872 163.043 24.6068C162.847 24.6068 162.456 24.6068 162.26 24.6068C162.253 24.0568 162.25 23.5091 162.243 22.9614C161.655 22.9638 161.07 22.9638 160.482 22.9662C160.477 23.5115 160.473 24.0591 160.466 24.6068C160.277 24.6092 159.894 24.6115 159.703 24.6115C159.698 23.2966 159.698 21.9818 159.701 20.6669C159.89 20.6646 160.265 20.6575 160.454 20.6551C160.473 21.1815 160.477 21.7079 160.492 22.2391C161.075 22.2391 161.658 22.2414 162.241 22.2367C162.248 21.7079 162.257 21.1792 162.281 20.6527Z" fill="#231F20"/>
<path d="M143.112 23.7288C142.982 22.6996 143.063 21.6586 143.081 20.6293C143.277 20.6458 143.672 20.6789 143.867 20.6954C143.879 21.5736 143.808 22.4564 143.91 23.3322C144.023 24.1915 145.324 23.9649 145.619 23.3464C145.688 22.4399 145.612 21.5311 145.68 20.627C145.874 20.6435 146.264 20.6812 146.457 20.7001C146.448 22.0008 146.459 23.3016 146.45 24.6046C145.973 24.4913 145.485 24.3261 145.012 24.5598C144.285 24.869 143.263 24.5881 143.112 23.7288Z" fill="#231F20"/>
<rect x="163.953" y="19.335" width="2.12457" height="2.59669" fill="#F4F5F9"/>
<path fill-rule="evenodd" clip-rule="evenodd" d="M131.999 0.247727C131.19 0.230207 130.379 0.212456 129.583 0.374749C128.21 0.724003 127.32 2.13807 127.379 3.5261C127.376 6.33326 127.378 9.14089 127.38 11.9487C127.382 16.5439 127.385 21.1398 127.369 25.7349L127.366 26.0429C127.352 27.2032 127.337 28.4886 128.236 29.3466C129.166 30.437 130.634 30.411 131.969 30.3872C132.169 30.3838 132.366 30.3803 132.558 30.3806C145.383 30.3665 158.208 30.3688 171.034 30.3783C171.313 30.3718 171.601 30.3778 171.892 30.3838C173.112 30.4089 174.396 30.4354 175.337 29.5686C176.197 28.8816 176.449 27.7414 176.435 26.6932C176.435 24.7621 176.433 22.8309 176.431 20.8998C176.426 15.4288 176.421 9.95858 176.442 4.48695C176.47 3.28542 176.414 1.89487 175.427 1.05228C174.555 0.198163 173.322 0.221447 172.167 0.243347C171.942 0.247727 171.721 0.251877 171.506 0.249571C162.995 0.26202 154.483 0.259945 145.971 0.257871C141.657 0.256948 137.342 0.255796 133.028 0.256718C132.686 0.262942 132.342 0.255335 131.999 0.247727ZM138.68 20.0793C138.687 19.7248 138.694 19.3704 138.698 19.0166L139.407 19.0161C140.247 19.0154 141.087 19.0145 141.927 19.0237C141.935 19.237 141.942 19.4541 141.948 19.6729L141.951 19.7792C141.132 19.8073 140.31 19.7978 139.489 19.8262L139.486 20.9664C139.677 20.9798 139.876 20.9809 140.078 20.9823C140.765 20.9867 141.481 20.9911 142.003 21.4786C142.798 22.3261 142.654 24.0779 141.448 24.4815C140.513 24.8119 138.99 24.7623 138.729 23.5748C138.633 22.4146 138.656 21.2458 138.68 20.0793ZM155.407 19.8004L155.388 19.0283C156.516 19.0094 157.644 19.0071 158.773 19.0306C158.768 19.222 158.756 19.6044 158.749 19.7955C157.772 19.8059 156.795 19.8034 155.819 19.8011L155.407 19.8004ZM147.683 22.8978C147.739 22.2516 147.796 21.5918 148.202 21.0727C148.68 20.5978 149.35 20.6247 149.998 20.6508C150.246 20.6607 150.491 20.6706 150.721 20.6524C150.758 21.9697 150.739 23.2892 150.737 24.609H149.97C149.962 24.0352 149.965 23.4621 149.964 22.8897C149.964 22.3807 149.961 21.8719 149.946 21.3631C149.686 21.4051 149.401 21.3954 149.137 21.4468C148.987 21.4759 148.843 21.5245 148.714 21.6133C148.577 21.9754 148.536 22.3625 148.495 22.7491C148.446 23.2143 148.397 23.6788 148.18 24.0991C147.955 24.526 147.466 24.5961 147.027 24.659L146.842 24.6867C146.799 24.1343 147.225 23.8134 147.616 23.523C147.647 23.3196 147.665 23.1094 147.683 22.8978ZM151.799 21.4385L151.771 20.7326C152.654 20.4684 154.037 20.2488 154.493 21.2947C154.629 22.0029 154.61 22.7256 154.591 23.4483C154.581 23.8264 154.571 24.2044 154.583 24.5806C153.787 24.5239 152.973 24.7812 152.196 24.5664C151.198 24.2289 151.193 22.5953 152.142 22.1963C152.439 22.0879 152.75 22.0469 153.064 22.022C153.318 22.0019 153.573 21.9927 153.825 21.9674L153.648 21.3228C153.029 21.2615 152.408 21.3253 151.799 21.4385ZM155.466 23.7991C155.298 22.7606 155.397 21.6983 155.416 20.6524L156.164 20.6501C156.203 21.2739 156.174 21.9014 156.187 22.5264C156.193 22.7837 156.205 23.0405 156.233 23.2964C156.339 24.2644 157.989 23.9621 157.982 23.0933C157.995 22.6264 157.987 22.1594 157.988 21.693C157.988 21.3458 157.993 20.9989 158.015 20.6524L158.756 20.6501C158.808 21.9697 158.782 23.2892 158.773 24.6113C158.291 24.4555 157.788 24.354 157.309 24.5758C156.622 24.8425 155.633 24.609 155.466 23.7991ZM162.24 22.2364C162.247 21.7078 162.257 21.1789 162.28 20.6524L163.017 20.6501C163.052 21.5759 163.048 22.5029 163.044 23.4303C163.043 23.8222 163.042 24.2143 163.043 24.6065H162.259L162.243 22.9612L160.482 22.966C160.477 23.5112 160.472 24.059 160.465 24.6065L159.995 24.6104L159.703 24.6113C159.698 23.2964 159.698 21.9814 159.7 20.6667L160.453 20.6549C160.465 20.9699 160.471 21.285 160.477 21.601C160.481 21.8131 160.486 22.0257 160.491 22.2389C161.074 22.2389 161.657 22.2412 162.24 22.2364ZM164.115 21.4929L164.044 20.5745C164.152 20.6045 164.26 20.6432 164.369 20.6821C164.739 20.8149 165.115 20.9496 165.491 20.7469L165.494 21.1241L165.496 21.625C165.052 21.4245 164.681 21.1176 164.398 20.7234C164.34 20.8781 164.283 21.0356 164.225 21.1935L164.115 21.4929ZM145.012 24.5594C144.285 24.8686 143.263 24.5876 143.112 23.7284C142.982 22.6991 143.063 21.6582 143.081 20.6289L143.868 20.6951C143.88 21.5732 143.809 22.4561 143.91 23.3319C144.023 24.191 145.324 23.9644 145.619 23.3459C145.654 22.892 145.652 22.4374 145.65 21.9833C145.648 21.5305 145.646 21.078 145.68 20.6266C145.874 20.643 146.264 20.6808 146.457 20.6997C146.448 22.0003 146.46 23.3012 146.45 24.6042C145.973 24.491 145.485 24.3257 145.012 24.5594Z" fill="#F4F5F9"/>
<g clip-path="url(#clip1)">
<path d="M145.74 15.8043H158.088C158.882 14.8341 159.499 13.5994 159.852 12.2764H144.064C144.329 13.5994 144.946 14.8341 145.74 15.8043Z" fill="url(#paint0_linear)"/>
<path d="M145.916 5.30859C145.034 6.27879 144.417 7.51358 144.152 8.83657H159.852C159.587 7.51358 158.97 6.36699 158.088 5.30859H145.916Z" fill="url(#paint1_linear)"/>
<path d="M151.914 2.57422C149.533 2.57422 147.328 3.63261 145.917 5.3084H158C156.5 3.63261 154.295 2.57422 151.914 2.57422Z" fill="black"/>
<path d="M143.887 10.6009C143.887 11.2183 143.975 11.7475 144.064 12.2767H159.763C159.851 11.7475 159.939 11.1301 159.939 10.6009C159.939 9.9835 159.851 9.36611 159.763 8.83691H144.064C143.975 9.36611 143.887 9.9835 143.887 10.6009Z" fill="black"/>
<path d="M151.914 18.6271C154.384 18.6271 156.589 17.4805 158.088 15.8047H145.74C147.24 17.5687 149.445 18.6271 151.914 18.6271Z" fill="black"/>
</g>
</g>
<defs>
<filter id="filter0_d" x="0" y="0" width="429.834" height="32.4933" filterUnits="userSpaceOnUse" color-interpolation-filters="sRGB">
<feFlood flood-opacity="0" result="BackgroundImageFix"/>
<feColorMatrix in="SourceAlpha" type="matrix" values="0 0 0 0 0 0 0 0 0 0 0 0 0 0 0 0 0 0 127 0"/>
<feOffset dy="1"/>
<feGaussianBlur stdDeviation="0.5"/>
<feColorMatrix type="matrix" values="0 0 0 0 0 0 0 0 0 0 0 0 0 0 0 0 0 0 0.25 0"/>
<feBlend mode="normal" in2="BackgroundImageFix" result="effect1_dropShadow"/>
<feBlend mode="normal" in="SourceGraphic" in2="effect1_dropShadow" result="shape"/>
</filter>
<linearGradient id="paint0_linear" x1="143.877" y1="14.0533" x2="159.952" y2="14.0533" gradientUnits="userSpaceOnUse">
<stop stop-color="#FAA61A"/>
<stop offset="1" stop-color="#FFE100"/>
</linearGradient>
<linearGradient id="paint1_linear" x1="143.876" y1="7.06861" x2="159.952" y2="7.06861" gradientUnits="userSpaceOnUse">
<stop stop-color="#FAA61A"/>
<stop offset="1" stop-color="#FFE100"/>
</linearGradient>
<clipPath id="clip0">
<rect width="26.6751" height="26.6751" fill="white" transform="translate(201.778 1.88867)"/>
</clipPath>
<clipPath id="clip1">
<rect width="16.0523" height="16.0523" fill="white" transform="translate(143.887 2.57422)"/>
</clipPath>
</defs>
</svg>
